HIERARCHY
ROOT pelvis
{
  OFFSET 0 100 0
  CHANNELS 6 Xposition Yposition Zposition Zrotation Xrotation Yrotation
  JOINT pelvis_right_femur
  {
    OFFSET -10.78128 -3.44521 -0.5502486
    CHANNELS 3 Zrotation Xrotation Yrotation
    JOINT right_femur_tibia
    {
      OFFSET -0.8047443 -44.0398 -0.1307829
      CHANNELS 3 Zrotation Xrotation Yrotation
      JOINT right_tibia_foot
      {
        OFFSET 3.006224 -47.83518 -5
        CHANNELS 3 Zrotation Xrotation Yrotation
        End Site
        {
          OFFSET 0 -5 15
        }
      }
    }
  }
  JOINT pelvis_left_femur
  {
    OFFSET 10.78128 -3.44521 -0.5502486
    CHANNELS 3 Zrotation Xrotation Yrotation
    JOINT left_femur_tibia
    {
      OFFSET 0.8047443 -44.0398 -0.1307829
      CHANNELS 3 Zrotation Xrotation Yrotation
      JOINT left_tibia_foot
      {
        OFFSET -4.370144 -48.10324 -4.275266
        CHANNELS 3 Zrotation Xrotation Yrotation
        End Site
        {
          OFFSET 0 -5 15
        }
      }
    }
  }
  JOINT pelvis_spine1
  {
    OFFSET 0 6.468898 -3.129235
    CHANNELS 3 Zrotation Xrotation Yrotation
    JOINT spine1
    {
      OFFSET 0 23.15396 4.99043
      CHANNELS 3 Zrotation Xrotation Yrotation
      JOINT spine2
      {
        OFFSET 0 20.79997 -5.064912
        CHANNELS 3 Zrotation Xrotation Yrotation
        JOINT neck
        {
          OFFSET 0 14.38658 9.616178
          CHANNELS 3 Zrotation Xrotation Yrotation
          End Site
          {
            OFFSET 0 20 0
          }
        }
      }
      JOINT right_manubrium
      {
        OFFSET -5.722621 16.35077 3.967754
        CHANNELS 3 Zrotation Xrotation Yrotation
        JOINT right_clavicle
        {
          OFFSET -13.16364 1.694482 -4.693211
          CHANNELS 3 Zrotation Xrotation Yrotation
          JOINT right_humerus
          {
            OFFSET -28.5034 -0.3100689 -2.792744
            CHANNELS 3 Zrotation Xrotation Yrotation
            JOINT right_radius
            {
              OFFSET -25.15693 0.02248979 -1.271978
              CHANNELS 3 Zrotation Xrotation Yrotation
              End Site
              {
                OFFSET -15 0 0
              }
            }
          }
        }
      }
      JOINT left_manubrium
      {
        OFFSET 5.722621 16.35077 3.967754
        CHANNELS 3 Zrotation Xrotation Yrotation
        JOINT left_clavicle
        {
          OFFSET 13.16364 1.694482 -4.693211
          CHANNELS 3 Zrotation Xrotation Yrotation
          JOINT left_humerus
          {
            OFFSET 29.39168 -1.063119 -2.237045
            CHANNELS 3 Zrotation Xrotation Yrotation
            JOINT left_radius
            {
              OFFSET 24.59957 -0.9528479 0.9047498
              CHANNELS 3 Zrotation Xrotation Yrotation
              End Site
              {
                OFFSET 15 -0 -0
              }
            }
          }
        }
      }
    }
  }
}
MOTION
Frames: 17
Frame Time: 0.0416666666667
0 103.5113 0 1.226474 -0.6155443 0.00366626 3.192065 -17.33334 8.852161 -0 35.88144 -0 -4.332628 -15.8535 -3.605332 -7.025816 11.66844 -23.3022 -0 4.583462 -0 5.957926 -18.40792 25.45489 -2.785185 -4.565081 2.286276 4.660215 6.389327 -10.20218 0.7794784 18.00689 9.630643 4.722125 -28.96605 11.08037 6.037029 -18.14714 12.05064 83.14796 30.32398 -19.76388 -0 0 19.65931 -8.912794 10.12527 4.60616 10.83306 -21.17386 5.452112 -95.22844 20.28035 20.22878 0 0 -9.847621 10.61484 19.38209 -2.656958
0.2399042 103.5381 1.672893 0.09306463 -0.07810586 -0.1657586 4.81508 -20.84228 9.543925 -0 36.39567 -0 -4.864355 -14.23539 -3.957131 -6.084007 11.62601 -22.97395 -0 5.630777 -0 3.708982 -20.1426 24.61998 -2.684658 -4.379417 2.361268 4.634139 6.621714 -10.16478 0.8113571 18.04977 9.514845 4.71269 -28.87719 10.96356 6.021951 -18.05924 11.98479 83.4335 30.70566 -19.92073 -0 0 18.93709 -8.822642 10.19186 4.601662 10.74858 -21.41164 5.101974 -94.70279 20.14399 19.65196 0 0 -10.83272 11.05421 18.92095 -2.829884
0.4793067 103.331 3.776547 -0.5317312 0.4736663 -0.2485647 5.688057 -25.16105 7.834146 -0 31.89744 -0 -6.406033 -11.33413 -3.141698 -5.758029 12.22537 -21.37672 -0 6.056902 -0 4.508898 -21.19733 23.53429 -2.27891 -3.174692 2.535633 4.465243 7.967455 -9.983875 0.7661576 18.6362 8.754463 4.615747 -27.56504 9.7105 6.039632 -17.01052 11.84346 85.42549 32.25094 -21.51985 -0 0 14.41342 -10.10324 11.10899 5.628052 9.625184 -22.33326 2.467802 -92.04996 20.29196 16.98313 0 0 -15.36839 10.63624 16.24705 -0.9963448
0.7304019 102.946 6.244505 -0.9753418 1.380021 -0.2356055 6.472002 -29.05421 7.115513 -0 27.76753 -0 -7.023225 -9.274253 -2.688506 -5.549227 12.54623 -20.07622 -0 6.398638 -0 5.280286 -22.03508 22.64628 -2.184988 -2.921681 2.671926 4.350844 8.310678 -9.862915 0.7907953 18.80384 8.568021 4.571824 -27.26544 9.505958 6.03121 -16.91191 11.81456 85.85274 32.59241 -21.77154 -0 0 13.67279 -10.23539 11.21494 5.725337 9.329097 -22.44787 1.87507 -91.62162 20.43055 16.64874 0 0 -16.23092 10.63653 15.64006 -0.6310134
0.9873092 102.3675 9.16143 -1.187405 2.411107 -0.08250276 6.984762 -32.53475 6.45693 -0 22.95084 -0 -7.149147 -7.354929 -2.265247 -5.512079 13.00849 -18.74429 -0 6.855046 -0 6.120005 -22.65159 21.66037 -2.121095 -2.720059 2.765558 4.266927 8.561716 -9.777762 0.7943358 18.9184 8.451815 4.548558 -27.02565 9.343737 6.002605 -16.82205 11.80609 86.17668 32.85165 -21.9415 -0 0 13.07401 -10.44834 11.32335 5.882017 9.111694 -22.55301 1.428666 -91.20444 20.45624 16.28879 0 0 -16.97982 10.64109 15.08874 -0.3876115
1.241842 101.636 12.62565 -1.283873 3.481422 0.2459864 7.341048 -35.46312 5.916857 -0 18.01043 -0 -6.886582 -5.426907 -1.956831 -5.537232 13.68026 -17.40935 -0 7.85777 -0 6.492534 -23.05148 20.37432 -2.083915 -2.585087 2.819426 4.213577 8.718974 -9.726958 0.7887284 18.98726 8.38807 4.537967 -26.86017 9.232902 5.97348 -16.75426 11.80774 86.38916 33.00844 -22.04818 -0 0 12.67222 -10.64884 11.40888 6.026006 8.972201 -22.62609 1.139599 -90.89627 20.44321 16.01201 0 0 -17.4981 10.62338 14.69164 -0.2240436
1.480449 100.8475 16.73817 -1.354343 4.415047 0.7738206 7.572235 -37.3601 5.495265 -0 13.74872 -0 -6.400817 -3.490189 -1.820082 -5.523325 14.57433 -16.12865 -0 9.859216 -0 5.840009 -23.05863 18.57194 -2.054339 -2.442988 2.850132 4.168091 8.865935 -9.692801 0.7687779 19.04926 8.333285 4.534899 -26.66348 9.092069 5.937837 -16.64994 11.81817 86.60321 33.11599 -22.17259 -0 0 12.23388 -10.97777 11.53629 6.248993 8.831588 -22.70519 0.8449136 -90.54434 20.40805 15.67632 0 0 -18.01969 10.49799 14.26477 0.02533039
1.683998 100.161 21.58261 -1.508537 4.982899 1.495468 7.72581 -37.58797 5.197447 -0 11.1755 -0 -5.968376 -1.760458 -1.881557 -5.322858 15.56593 -14.97308 -0 13.35733 -0 3.640529 -22.29645 16.07903 -2.025884 -2.278136 2.879967 4.110995 9.035938 -9.654223 0.7423708 19.13025 8.256861 4.528123 -26.398 8.901073 5.903506 -16.5139 11.83261 86.83732 33.17679 -22.323 -0 0 11.75026 -11.43307 11.70447 6.540906 8.64964 -22.77122 0.4919681 -90.17584 20.41543 15.34117 0 0 -18.5169 10.21449 13.79861 0.4535632
1.831946 99.78412 27.15319 -1.880528 4.933775 2.32308 7.937036 -35.5955 5.079945 -0 11.35855 -0 -6.049281 -0.8172585 -2.096985 -4.740027 16.24353 -14.03138 -0 18.71925 -0 -0.1436692 -20.19473 13.08031 -1.993436 -2.076611 2.937316 4.020123 9.259679 -9.584624 0.7182722 19.25509 8.130983 4.506194 -26.03134 8.646437 5.87545 -16.36266 11.84783 87.09356 33.19818 -22.48006 -0 0 11.23562 -12.00709 11.9044 6.891583 8.387272 -22.79922 0.03738311 -89.82112 20.52079 15.07646 0 0 -18.95405 9.743395 13.27981 1.130088
1.915364 99.90825 33.2804 -2.541475 4.163549 3.021892 8.401992 -31.58074 5.176228 -0 14.398 -0 -7.100122 -1.337155 -2.333055 -3.681219 15.89304 -13.22992 -0 25.97859 -0 -4.359457 -16.3401 10.38908 -1.956371 -1.844529 3.056652 3.875401 9.546261 -9.45233 0.7090674 19.44234 7.936217 4.458778 -25.56545 8.339258 5.861663 -16.24207 11.85941 87.32538 33.1957 -22.57231 -0 0 10.78355 -12.63087 12.09908 7.256339 8.024379 -22.7485 -0.515039 -89.56669 20.78148 15.01715 0 0 -19.22213 9.102297 12.75271 2.062668
1.96239 100.6048 39.62907 -3.265023 2.905415 3.253842 9.090184 -26.7438 5.412474 -0 18.22344 -0 -8.866656 -3.385237 -2.518792 -2.479571 13.77702 -12.25161 -0 34.77654 -0 -6.90749 -11.29041 9.020461 -1.919294 -1.603847 3.263306 3.667865 9.874977 -9.235082 0.7222825 19.69307 7.676096 4.385607 -25.03664 8.007996 5.863216 -16.20528 11.86266 87.45591 33.20397 -22.49799 -0 0 10.50861 -13.22042 12.24447 7.590079 7.576218 -22.59348 -1.113584 -89.49221 21.21322 15.27126 0 0 -19.23291 8.362684 12.28167 3.176107
2.046818 101.7686 45.84316 -3.411709 1.519696 2.859857 9.351163 -21.92313 5.491104 -0 19.55097 -0 -10.07845 -5.987602 -2.634387 -1.908115 9.577781 -10.97456 -0 44.48391 -0 -6.834618 -6.796631 9.101313 -1.889795 -1.380063 3.561152 3.401676 10.20534 -8.932394 0.7544733 19.98788 7.379452 4.297723 -24.49169 7.682863 5.865693 -16.28349 11.85321 87.42379 33.26275 -22.17781 -0 0 10.47374 -13.74019 12.3167 7.88284 7.090125 -22.34814 -1.687647 -89.60333 21.76812 15.83146 0 0 -19.00824 7.619474 11.89401 4.343087
2.227709 103.1829 51.73658 -2.526886 0.05569751 2.097906 8.413633 -16.4557 5.02684 -0 17.51553 -0 -9.811701 -8.015877 -2.506064 -2.35236 3.586543 -9.852174 -0 53.68785 -0 -5.665175 -4.4667 9.902171 -1.874521 -1.183664 3.940505 3.082754 10.50702 -8.557772 0.7927478 20.29946 7.083025 4.208273 -23.94756 7.37689 5.839764 -16.47576 11.83168 87.21255 33.38533 -21.57851 -0 0 10.66738 -14.25451 12.32753 8.184185 6.611345 -22.05248 -2.194262 -89.81583 22.35059 16.57908 0 0 -18.67029 6.93672 11.53167 5.458238
2.464541 104.6275 57.34873 -1.04823 -1.596112 1.387076 6.661635 -9.92406 4.291489 -0 14.47287 -0 -8.424264 -9.03877 -2.209123 -3.11775 -3.161064 -9.053505 -0 59.95019 -0 -5.321159 -4.204598 11.04579 -1.880028 -1.014603 4.394044 2.712498 10.76452 -8.12103 0.8228486 20.60744 6.811673 4.123604 -23.39244 7.08556 5.7589 -16.77232 11.80461 86.80966 33.54577 -20.67094 -0 0 11.07776 -14.88081 12.30182 8.573043 6.160649 -21.72821 -2.613917 -90.0481 22.87296 17.41736 0 0 -18.29202 6.317581 11.11681 6.482357
2.657612 105.8793 62.80285 0.1869397 -3.362788 0.8687427 5.230238 -3.336594 3.934514 -0 12.35163 -0 -6.794159 -9.333743 -2.143881 -3.135967 -9.436459 -8.040171 -0 61.24951 -0 -5.797771 -4.735611 12.76317 -1.914237 -0.8775748 4.914944 2.295387 10.95615 -7.627991 0.8357431 20.89971 6.575062 4.045793 -22.81588 6.796781 5.613997 -17.16997 11.77633 86.16664 33.69199 -19.40204 -0 0 11.7413 -15.70263 12.2501 9.105588 5.745947 -21.36868 -2.9192 -90.28873 23.29756 18.33799 0 0 -17.8294 5.707067 10.64811 7.444078
2.779106 106.6969 68.16176 0.7877623 -4.882283 0.4230934 4.597247 2.251955 3.862191 -0 10.94949 -0 -5.725398 -9.742727 -2.220517 -2.071285 -14.84186 -6.525536 -0 57.07148 -0 -5.909874 -5.215158 14.91315 -1.982687 -0.7838808 5.493025 1.84247 11.04917 -7.086678 0.8303208 21.16656 6.376039 3.980169 -22.2254 6.50113 5.410826 -17.67192 11.7418 85.21251 33.77578 -17.70744 -0 0 12.71573 -16.72607 12.16335 9.788096 5.380888 -20.96843 -3.07007 -90.56525 23.62919 19.36098 0 0 -17.21051 5.043825 10.20249 8.393784
2.897344 106.9108 73.45373 0.812381 -5.69283 -0.0772237 4.586523 6.61871 3.722382 -0 9.68712 -0 -5.346025 -10.97189 -2.029098 -0.2831428 -19.58575 -4.749429 -0 48.41426 -0 -5.151095 -5.409901 16.86867 -2.083981 -0.7430345 6.109257 1.3734 11.01532 -6.515302 0.8099288 21.39394 6.223467 3.936466 -21.65046 6.204101 5.15966 -18.27513 11.69277 83.91677 33.77321 -15.56964 -0 0 14.01586 -17.889 12.02711 10.58404 5.089535 -20.54895 -3.033796 -90.87472 23.87017 20.44615 0 0 -16.4503 4.328452 9.859176 9.328334
